<svg width="20" height="20" viewBox="0 0 20 20" fill="none" xmlns="http://www.w3.org/2000/svg">
<path d="M14.1666 7.64174C14.0105 7.48653 13.7993 7.39941 13.5791 7.39941C13.359 7.39941 13.1478 7.48653 12.9916 7.64174L9.99998 10.5917L7.04998 7.64174C6.89384 7.48653 6.68263 7.39941 6.46248 7.39941C6.24232 7.39941 6.03111 7.48653 5.87498 7.64174C5.79687 7.71921 5.73488 7.81138 5.69257 7.91293C5.65026 8.01448 5.62848 8.1234 5.62848 8.23341C5.62848 8.34342 5.65026 8.45234 5.69257 8.55389C5.73488 8.65544 5.79687 8.74761 5.87498 8.82507L9.40831 12.3584C9.48578 12.4365 9.57795 12.4985 9.6795 12.5408C9.78105 12.5831 9.88997 12.6049 9.99998 12.6049C10.11 12.6049 10.2189 12.5831 10.3205 12.5408C10.422 12.4985 10.5142 12.4365 10.5916 12.3584L14.1666 8.82507C14.2448 8.74761 14.3067 8.65544 14.3491 8.55389C14.3914 8.45234 14.4131 8.34342 14.4131 8.23341C14.4131 8.1234 14.3914 8.01448 14.3491 7.91293C14.3067 7.81138 14.2448 7.71921 14.1666 7.64174Z" fill="white"/>
</svg>
