<svg width="20" height="20" viewBox="0 0 20 20" fill="none" xmlns="http://www.w3.org/2000/svg">
<path d="M5.83329 12.3583C5.98943 12.5135 6.20064 12.6006 6.42079 12.6006C6.64095 12.6006 6.85216 12.5135 7.0083 12.3583L9.99996 9.40826L12.95 12.3583C13.1061 12.5135 13.3173 12.6006 13.5375 12.6006C13.7576 12.6006 13.9688 12.5135 14.125 12.3583C14.2031 12.2808 14.2651 12.1886 14.3074 12.0871C14.3497 11.9855 14.3715 11.8766 14.3715 11.7666C14.3715 11.6566 14.3497 11.5477 14.3074 11.4461C14.2651 11.3446 14.2031 11.2524 14.125 11.1749L10.5916 7.64159C10.5142 7.56349 10.422 7.50149 10.3204 7.45918C10.2189 7.41688 10.11 7.39509 9.99996 7.39509C9.88995 7.39509 9.78103 7.41688 9.67948 7.45918C9.57793 7.50149 9.48576 7.56349 9.4083 7.64159L5.83329 11.1749C5.75519 11.2524 5.69319 11.3446 5.65089 11.4461C5.60858 11.5477 5.5868 11.6566 5.5868 11.7666C5.5868 11.8766 5.60858 11.9855 5.65089 12.0871C5.69319 12.1886 5.75519 12.2808 5.83329 12.3583Z" fill="white"/>
</svg>
