<svg width="18" height="24" viewBox="0 0 18 24" fill="none" xmlns="http://www.w3.org/2000/svg">
<path d="M9 10C8.60444 10 8.21776 10.1173 7.88886 10.3371C7.55996 10.5568 7.30362 10.8692 7.15224 11.2346C7.00087 11.6001 6.96126 12.0022 7.03843 12.3902C7.1156 12.7781 7.30608 13.1345 7.58579 13.4142C7.86549 13.6939 8.22186 13.8844 8.60982 13.9616C8.99778 14.0387 9.39992 13.9991 9.76537 13.8478C10.1308 13.6964 10.4432 13.44 10.6629 13.1111C10.8827 12.7822 11 12.3956 11 12C11 11.4696 10.7893 10.9609 10.4142 10.5858C10.0391 10.2107 9.53043 10 9 10ZM2 10C1.60444 10 1.21776 10.1173 0.88886 10.3371C0.559962 10.5568 0.303617 10.8692 0.152242 11.2346C0.000866562 11.6001 -0.0387401 12.0022 0.0384303 12.3902C0.115601 12.7781 0.306082 13.1345 0.585787 13.4142C0.865492 13.6939 1.22186 13.8844 1.60982 13.9616C1.99778 14.0387 2.39992 13.9991 2.76537 13.8478C3.13082 13.6964 3.44318 13.44 3.66294 13.1111C3.8827 12.7822 4 12.3956 4 12C4 11.4696 3.78929 10.9609 3.41421 10.5858C3.03914 10.2107 2.53043 10 2 10ZM16 10C15.6044 10 15.2178 10.1173 14.8889 10.3371C14.56 10.5568 14.3036 10.8692 14.1522 11.2346C14.0009 11.6001 13.9613 12.0022 14.0384 12.3902C14.1156 12.7781 14.3061 13.1345 14.5858 13.4142C14.8655 13.6939 15.2219 13.8844 15.6098 13.9616C15.9978 14.0387 16.3999 13.9991 16.7654 13.8478C17.1308 13.6964 17.4432 13.44 17.6629 13.1111C17.8827 12.7822 18 12.3956 18 12C18 11.4696 17.7893 10.9609 17.4142 10.5858C17.0391 10.2107 16.5304 10 16 10Z" fill="#F9F9F9"/>
</svg>
