<svg width="20" height="20" viewBox="0 0 20 20" fill="none" xmlns="http://www.w3.org/2000/svg">
<path d="M11.667 10C11.667 9.67037 11.5692 9.34813 11.3861 9.07405C11.203 8.79997 10.9427 8.58635 10.6381 8.4602C10.3336 8.33406 9.99848 8.30105 9.67517 8.36536C9.35187 8.42967 9.0549 8.5884 8.82181 8.82149C8.58873 9.05458 8.42999 9.35155 8.36568 9.67485C8.30137 9.99815 8.33438 10.3333 8.46052 10.6378C8.58667 10.9424 8.80029 11.2026 9.07437 11.3858C9.34846 11.5689 9.67069 11.6667 10.0003 11.6667C10.4424 11.6667 10.8663 11.4911 11.1788 11.1785C11.4914 10.866 11.667 10.442 11.667 10ZM11.667 4.16667C11.667 3.83703 11.5692 3.5148 11.3861 3.24072C11.203 2.96664 10.9427 2.75301 10.6381 2.62687C10.3336 2.50072 9.99848 2.46772 9.67517 2.53203C9.35187 2.59633 9.0549 2.75507 8.82181 2.98816C8.58873 3.22124 8.42999 3.51822 8.36568 3.84152C8.30137 4.16482 8.33438 4.49993 8.46053 4.80447C8.58667 5.10902 8.80029 5.36931 9.07437 5.55245C9.34846 5.73559 9.67069 5.83333 10.0003 5.83333C10.4424 5.83333 10.8663 5.65774 11.1788 5.34518C11.4914 5.03262 11.667 4.6087 11.667 4.16667ZM11.667 15.8333C11.667 15.5037 11.5692 15.1815 11.3861 14.9074C11.203 14.6333 10.9427 14.4197 10.6381 14.2935C10.3336 14.1674 9.99848 14.1344 9.67517 14.1987C9.35187 14.263 9.0549 14.4217 8.82181 14.6548C8.58873 14.8879 8.42999 15.1849 8.36568 15.5082C8.30137 15.8315 8.33438 16.1666 8.46052 16.4711C8.58667 16.7757 8.80029 17.036 9.07437 17.2191C9.34846 17.4023 9.67069 17.5 10.0003 17.5C10.4424 17.5 10.8663 17.3244 11.1788 17.0118C11.4914 16.6993 11.667 16.2754 11.667 15.8333Z" fill="white"/>
</svg>
