<svg width="16" height="16" viewBox="0 0 16 16" fill="none" xmlns="http://www.w3.org/2000/svg">
<path opacity="0.99" d="M6.87456 10.7292C6.78701 10.7293 6.70029 10.7121 6.6194 10.6786C6.53852 10.6451 6.46505 10.5959 6.40323 10.5339L4.52823 8.65891C4.40452 8.53363 4.33539 8.3645 4.33594 8.18844C4.33649 8.01237 4.40667 7.84368 4.53117 7.71918C4.65566 7.59468 4.82436 7.52449 5.00042 7.52393C5.17648 7.52337 5.34562 7.59249 5.4709 7.7162L6.87454 9.11985L10.5282 5.4662C10.6535 5.34249 10.8226 5.27337 10.9987 5.27393C11.1748 5.27449 11.3435 5.34468 11.468 5.46918C11.5925 5.59368 11.6626 5.76237 11.6632 5.93844C11.6637 6.1145 11.5946 6.28363 11.4709 6.40891L7.3459 10.5339C7.28408 10.5959 7.21061 10.6451 7.12972 10.6786C7.04884 10.7121 6.96212 10.7293 6.87456 10.7292Z" fill="white"/>
<path d="M7.99968 1.33325C6.68114 1.33325 5.3922 1.72425 4.29588 2.45679C3.19955 3.18933 2.34506 4.23052 1.84048 5.4487C1.3359 6.66687 1.20387 8.00731 1.46111 9.30052C1.71834 10.5937 2.35328 11.7816 3.28563 12.714C4.21798 13.6463 5.40587 14.2813 6.69908 14.5385C7.99228 14.7957 9.33273 14.6637 10.5509 14.1591C11.7691 13.6545 12.8103 12.8 13.5428 11.7037C14.2754 10.6074 14.6663 9.31846 14.6663 7.99992C14.6643 6.23243 13.9613 4.53791 12.7115 3.28811C11.4617 2.0383 9.76717 1.33527 7.99968 1.33325ZM11.471 6.40877L7.34601 10.5338C7.28412 10.5957 7.21064 10.6448 7.12977 10.6783C7.04889 10.7118 6.9622 10.7291 6.87466 10.7291C6.78711 10.7291 6.70043 10.7118 6.61955 10.6783C6.53867 10.6448 6.46519 10.5957 6.4033 10.5338L4.52834 8.65877C4.40463 8.5335 4.3355 8.36437 4.33605 8.1883C4.3366 8.01224 4.40679 7.84354 4.53128 7.71904C4.65577 7.59454 4.82447 7.52435 5.00053 7.5238C5.1766 7.52324 5.34573 7.59236 5.47101 7.71607L6.87466 9.11971L10.5283 5.46607C10.6536 5.34236 10.8228 5.27324 10.9988 5.27379C11.1749 5.27435 11.3436 5.34454 11.4681 5.46904C11.5926 5.59354 11.6628 5.76224 11.6633 5.9383C11.6639 6.11437 11.5947 6.2835 11.471 6.40877Z" fill="#059669"/>
</svg>
