<svg width="25" height="24" viewBox="0 0 25 24" fill="none" xmlns="http://www.w3.org/2000/svg">
<path d="M22.2099 20.2899L18.4999 16.6099C19.94 14.8143 20.6374 12.5352 20.4487 10.2412C20.26 7.94721 19.1996 5.81269 17.4854 4.27655C15.7713 2.74041 13.5337 1.91941 11.2328 1.98237C8.93194 2.04534 6.74263 2.98747 5.11505 4.61505C3.48747 6.24263 2.54534 8.43194 2.48237 10.7328C2.41941 13.0337 3.24041 15.2713 4.77655 16.9854C6.31269 18.6996 8.44721 19.76 10.7412 19.9487C13.0352 20.1374 15.3143 19.44 17.1099 17.9999L20.7899 21.6799C20.8829 21.7736 20.9935 21.848 21.1153 21.8988C21.2372 21.9496 21.3679 21.9757 21.4999 21.9757C21.6319 21.9757 21.7626 21.9496 21.8845 21.8988C22.0063 21.848 22.1169 21.7736 22.2099 21.6799C22.3901 21.4934 22.4909 21.2442 22.4909 20.9849C22.4909 20.7256 22.3901 20.4764 22.2099 20.2899ZM11.4999 17.9999C10.1154 17.9999 8.76206 17.5894 7.61091 16.8202C6.45977 16.051 5.56256 14.9578 5.03275 13.6787C4.50293 12.3996 4.36431 10.9921 4.63441 9.63427C4.9045 8.27641 5.57119 7.02912 6.55016 6.05016C7.52912 5.07119 8.77641 4.4045 10.1343 4.13441C11.4921 3.86431 12.8996 4.00293 14.1787 4.53275C15.4578 5.06256 16.551 5.95977 17.3202 7.11091C18.0894 8.26206 18.4999 9.61544 18.4999 10.9999C18.4999 12.8564 17.7624 14.6369 16.4497 15.9497C15.1369 17.2624 13.3564 17.9999 11.4999 17.9999Z" fill="white"/>
</svg>
